<?xml version="1.0" encoding="utf-8" standalone="no"?>
<!DOCTYPE svg PUBLIC "-//W3C//DTD SVG 1.1//EN"
  "http://www.w3.org/Graphics/SVG/1.1/DTD/svg11.dtd">
<svg xmlns:xlink="http://www.w3.org/1999/xlink" width="501.84pt" height="239.04pt" viewBox="0 0 501.84 239.04" xmlns="http://www.w3.org/2000/svg" version="1.1">
 <metadata>
  <rdf:RDF xmlns:dc="http://purl.org/dc/elements/1.1/" xmlns:cc="http://creativecommons.org/ns#" xmlns:rdf="http://www.w3.org/1999/02/22-rdf-syntax-ns#">
   <cc:Work>
    <dc:type rdf:resource="http://purl.org/dc/dcmitype/StillImage"/>
    <dc:date>2024-05-05T20:31:39.776002</dc:date>
    <dc:format>image/svg+xml</dc:format>
    <dc:creator>
     <cc:Agent>
      <dc:title>Matplotlib v3.5.1, https://matplotlib.org/</dc:title>
     </cc:Agent>
    </dc:creator>
   </cc:Work>
  </rdf:RDF>
 </metadata>
 <defs>
  <style type="text/css">*{stroke-linejoin: round; stroke-linecap: butt}</style>
 </defs>
 <g id="figure_1">
  <g id="patch_1">
   <path d="M 0 239.04 
L 501.84 239.04 
L 501.84 0 
L 0 0 
z
" style="fill: #ffffff"/>
  </g>
  <g id="axes_1">
   <g id="patch_2">
    <path d="M 62.73 212.7456 
L 451.656 212.7456 
L 451.656 28.6848 
L 62.73 28.6848 
z
" style="fill: #ffffff"/>
   </g>
   <g id="matplotlib.axis_1">
    <g id="xtick_1">
     <g id="line2d_1">
      <defs>
       <path id="mb026c5be31" d="M 0 0 
L 0 3.5 
" style="stroke: #000000; stroke-width: 0.8"/>
      </defs>
      <g>
       <use xlink:href="#mb026c5be31" x="80.408455" y="212.7456" style="stroke: #000000; stroke-width: 0.8"/>
      </g>
     </g>
     <g id="text_1">
      <!-- 0 -->
      <g transform="translate(77.227205 227.344037)scale(0.1 -0.1)">
       <defs>
        <path id="DejaVuSans-30" d="M 2034 4250 
Q 1547 4250 1301 3770 
Q 1056 3291 1056 2328 
Q 1056 1369 1301 889 
Q 1547 409 2034 409 
Q 2525 409 2770 889 
Q 3016 1369 3016 2328 
Q 3016 3291 2770 3770 
Q 2525 4250 2034 4250 
z
M 2034 4750 
Q 2819 4750 3233 4129 
Q 3647 3509 3647 2328 
Q 3647 1150 3233 529 
Q 2819 -91 2034 -91 
Q 1250 -91 836 529 
Q 422 1150 422 2328 
Q 422 3509 836 4129 
Q 1250 4750 2034 4750 
z
" transform="scale(0.015625)"/>
       </defs>
       <use xlink:href="#DejaVuSans-30"/>
      </g>
     </g>
    </g>
    <g id="xtick_2">
     <g id="line2d_2">
      <g>
       <use xlink:href="#mb026c5be31" x="130.918325" y="212.7456" style="stroke: #000000; stroke-width: 0.8"/>
      </g>
     </g>
     <g id="text_2">
      <!-- 2 -->
      <g transform="translate(127.737075 227.344037)scale(0.1 -0.1)">
       <defs>
        <path id="DejaVuSans-32" d="M 1228 531 
L 3431 531 
L 3431 0 
L 469 0 
L 469 531 
Q 828 903 1448 1529 
Q 2069 2156 2228 2338 
Q 2531 2678 2651 2914 
Q 2772 3150 2772 3378 
Q 2772 3750 2511 3984 
Q 2250 4219 1831 4219 
Q 1534 4219 1204 4116 
Q 875 4013 500 3803 
L 500 4441 
Q 881 4594 1212 4672 
Q 1544 4750 1819 4750 
Q 2544 4750 2975 4387 
Q 3406 4025 3406 3419 
Q 3406 3131 3298 2873 
Q 3191 2616 2906 2266 
Q 2828 2175 2409 1742 
Q 1991 1309 1228 531 
z
" transform="scale(0.015625)"/>
       </defs>
       <use xlink:href="#DejaVuSans-32"/>
      </g>
     </g>
    </g>
    <g id="xtick_3">
     <g id="line2d_3">
      <g>
       <use xlink:href="#mb026c5be31" x="181.428195" y="212.7456" style="stroke: #000000; stroke-width: 0.8"/>
      </g>
     </g>
     <g id="text_3">
      <!-- 4 -->
      <g transform="translate(178.246945 227.344037)scale(0.1 -0.1)">
       <defs>
        <path id="DejaVuSans-34" d="M 2419 4116 
L 825 1625 
L 2419 1625 
L 2419 4116 
z
M 2253 4666 
L 3047 4666 
L 3047 1625 
L 3713 1625 
L 3713 1100 
L 3047 1100 
L 3047 0 
L 2419 0 
L 2419 1100 
L 313 1100 
L 313 1709 
L 2253 4666 
z
" transform="scale(0.015625)"/>
       </defs>
       <use xlink:href="#DejaVuSans-34"/>
      </g>
     </g>
    </g>
    <g id="xtick_4">
     <g id="line2d_4">
      <g>
       <use xlink:href="#mb026c5be31" x="231.938065" y="212.7456" style="stroke: #000000; stroke-width: 0.8"/>
      </g>
     </g>
     <g id="text_4">
      <!-- 6 -->
      <g transform="translate(228.756815 227.344037)scale(0.1 -0.1)">
       <defs>
        <path id="DejaVuSans-36" d="M 2113 2584 
Q 1688 2584 1439 2293 
Q 1191 2003 1191 1497 
Q 1191 994 1439 701 
Q 1688 409 2113 409 
Q 2538 409 2786 701 
Q 3034 994 3034 1497 
Q 3034 2003 2786 2293 
Q 2538 2584 2113 2584 
z
M 3366 4563 
L 3366 3988 
Q 3128 4100 2886 4159 
Q 2644 4219 2406 4219 
Q 1781 4219 1451 3797 
Q 1122 3375 1075 2522 
Q 1259 2794 1537 2939 
Q 1816 3084 2150 3084 
Q 2853 3084 3261 2657 
Q 3669 2231 3669 1497 
Q 3669 778 3244 343 
Q 2819 -91 2113 -91 
Q 1303 -91 875 529 
Q 447 1150 447 2328 
Q 447 3434 972 4092 
Q 1497 4750 2381 4750 
Q 2619 4750 2861 4703 
Q 3103 4656 3366 4563 
z
" transform="scale(0.015625)"/>
       </defs>
       <use xlink:href="#DejaVuSans-36"/>
      </g>
     </g>
    </g>
    <g id="xtick_5">
     <g id="line2d_5">
      <g>
       <use xlink:href="#mb026c5be31" x="282.447935" y="212.7456" style="stroke: #000000; stroke-width: 0.8"/>
      </g>
     </g>
     <g id="text_5">
      <!-- 8 -->
      <g transform="translate(279.266685 227.344037)scale(0.1 -0.1)">
       <defs>
        <path id="DejaVuSans-38" d="M 2034 2216 
Q 1584 2216 1326 1975 
Q 1069 1734 1069 1313 
Q 1069 891 1326 650 
Q 1584 409 2034 409 
Q 2484 409 2743 651 
Q 3003 894 3003 1313 
Q 3003 1734 2745 1975 
Q 2488 2216 2034 2216 
z
M 1403 2484 
Q 997 2584 770 2862 
Q 544 3141 544 3541 
Q 544 4100 942 4425 
Q 1341 4750 2034 4750 
Q 2731 4750 3128 4425 
Q 3525 4100 3525 3541 
Q 3525 3141 3298 2862 
Q 3072 2584 2669 2484 
Q 3125 2378 3379 2068 
Q 3634 1759 3634 1313 
Q 3634 634 3220 271 
Q 2806 -91 2034 -91 
Q 1263 -91 848 271 
Q 434 634 434 1313 
Q 434 1759 690 2068 
Q 947 2378 1403 2484 
z
M 1172 3481 
Q 1172 3119 1398 2916 
Q 1625 2713 2034 2713 
Q 2441 2713 2670 2916 
Q 2900 3119 2900 3481 
Q 2900 3844 2670 4047 
Q 2441 4250 2034 4250 
Q 1625 4250 1398 4047 
Q 1172 3844 1172 3481 
z
" transform="scale(0.015625)"/>
       </defs>
       <use xlink:href="#DejaVuSans-38"/>
      </g>
     </g>
    </g>
    <g id="xtick_6">
     <g id="line2d_6">
      <g>
       <use xlink:href="#mb026c5be31" x="332.957805" y="212.7456" style="stroke: #000000; stroke-width: 0.8"/>
      </g>
     </g>
     <g id="text_6">
      <!-- 10 -->
      <g transform="translate(326.595305 227.344037)scale(0.1 -0.1)">
       <defs>
        <path id="DejaVuSans-31" d="M 794 531 
L 1825 531 
L 1825 4091 
L 703 3866 
L 703 4441 
L 1819 4666 
L 2450 4666 
L 2450 531 
L 3481 531 
L 3481 0 
L 794 0 
L 794 531 
z
" transform="scale(0.015625)"/>
       </defs>
       <use xlink:href="#DejaVuSans-31"/>
       <use xlink:href="#DejaVuSans-30" x="63.623047"/>
      </g>
     </g>
    </g>
    <g id="xtick_7">
     <g id="line2d_7">
      <g>
       <use xlink:href="#mb026c5be31" x="383.467675" y="212.7456" style="stroke: #000000; stroke-width: 0.8"/>
      </g>
     </g>
     <g id="text_7">
      <!-- 12 -->
      <g transform="translate(377.105175 227.344037)scale(0.1 -0.1)">
       <use xlink:href="#DejaVuSans-31"/>
       <use xlink:href="#DejaVuSans-32" x="63.623047"/>
      </g>
     </g>
    </g>
    <g id="xtick_8">
     <g id="line2d_8">
      <g>
       <use xlink:href="#mb026c5be31" x="433.977545" y="212.7456" style="stroke: #000000; stroke-width: 0.8"/>
      </g>
     </g>
     <g id="text_8">
      <!-- 14 -->
      <g transform="translate(427.615045 227.344037)scale(0.1 -0.1)">
       <use xlink:href="#DejaVuSans-31"/>
       <use xlink:href="#DejaVuSans-34" x="63.623047"/>
      </g>
     </g>
    </g>
   </g>
   <g id="matplotlib.axis_2">
    <g id="ytick_1">
     <g id="line2d_9">
      <defs>
       <path id="m044dde9e71" d="M 0 0 
L -3.5 0 
" style="stroke: #000000; stroke-width: 0.8"/>
      </defs>
      <g>
       <use xlink:href="#m044dde9e71" x="62.73" y="208.698057" style="stroke: #000000; stroke-width: 0.8"/>
      </g>
     </g>
     <g id="text_9">
      <!-- −17.5 -->
      <g transform="translate(25.084687 212.497275)scale(0.1 -0.1)">
       <defs>
        <path id="DejaVuSans-2212" d="M 678 2272 
L 4684 2272 
L 4684 1741 
L 678 1741 
L 678 2272 
z
" transform="scale(0.015625)"/>
        <path id="DejaVuSans-37" d="M 525 4666 
L 3525 4666 
L 3525 4397 
L 1831 0 
L 1172 0 
L 2766 4134 
L 525 4134 
L 525 4666 
z
" transform="scale(0.015625)"/>
        <path id="DejaVuSans-2e" d="M 684 794 
L 1344 794 
L 1344 0 
L 684 0 
L 684 794 
z
" transform="scale(0.015625)"/>
        <path id="DejaVuSans-35" d="M 691 4666 
L 3169 4666 
L 3169 4134 
L 1269 4134 
L 1269 2991 
Q 1406 3038 1543 3061 
Q 1681 3084 1819 3084 
Q 2600 3084 3056 2656 
Q 3513 2228 3513 1497 
Q 3513 744 3044 326 
Q 2575 -91 1722 -91 
Q 1428 -91 1123 -41 
Q 819 9 494 109 
L 494 744 
Q 775 591 1075 516 
Q 1375 441 1709 441 
Q 2250 441 2565 725 
Q 2881 1009 2881 1497 
Q 2881 1984 2565 2268 
Q 2250 2553 1709 2553 
Q 1456 2553 1204 2497 
Q 953 2441 691 2322 
L 691 4666 
z
" transform="scale(0.015625)"/>
       </defs>
       <use xlink:href="#DejaVuSans-2212"/>
       <use xlink:href="#DejaVuSans-31" x="83.789062"/>
       <use xlink:href="#DejaVuSans-37" x="147.412109"/>
       <use xlink:href="#DejaVuSans-2e" x="211.035156"/>
       <use xlink:href="#DejaVuSans-35" x="242.822266"/>
      </g>
     </g>
    </g>
    <g id="ytick_2">
     <g id="line2d_10">
      <g>
       <use xlink:href="#m044dde9e71" x="62.73" y="187.123641" style="stroke: #000000; stroke-width: 0.8"/>
      </g>
     </g>
     <g id="text_10">
      <!-- −15.0 -->
      <g transform="translate(25.084687 190.92286)scale(0.1 -0.1)">
       <use xlink:href="#DejaVuSans-2212"/>
       <use xlink:href="#DejaVuSans-31" x="83.789062"/>
       <use xlink:href="#DejaVuSans-35" x="147.412109"/>
       <use xlink:href="#DejaVuSans-2e" x="211.035156"/>
       <use xlink:href="#DejaVuSans-30" x="242.822266"/>
      </g>
     </g>
    </g>
    <g id="ytick_3">
     <g id="line2d_11">
      <g>
       <use xlink:href="#m044dde9e71" x="62.73" y="165.549226" style="stroke: #000000; stroke-width: 0.8"/>
      </g>
     </g>
     <g id="text_11">
      <!-- −12.5 -->
      <g transform="translate(25.084687 169.348445)scale(0.1 -0.1)">
       <use xlink:href="#DejaVuSans-2212"/>
       <use xlink:href="#DejaVuSans-31" x="83.789062"/>
       <use xlink:href="#DejaVuSans-32" x="147.412109"/>
       <use xlink:href="#DejaVuSans-2e" x="211.035156"/>
       <use xlink:href="#DejaVuSans-35" x="242.822266"/>
      </g>
     </g>
    </g>
    <g id="ytick_4">
     <g id="line2d_12">
      <g>
       <use xlink:href="#m044dde9e71" x="62.73" y="143.97481" style="stroke: #000000; stroke-width: 0.8"/>
      </g>
     </g>
     <g id="text_12">
      <!-- −10.0 -->
      <g transform="translate(25.084687 147.774029)scale(0.1 -0.1)">
       <use xlink:href="#DejaVuSans-2212"/>
       <use xlink:href="#DejaVuSans-31" x="83.789062"/>
       <use xlink:href="#DejaVuSans-30" x="147.412109"/>
       <use xlink:href="#DejaVuSans-2e" x="211.035156"/>
       <use xlink:href="#DejaVuSans-30" x="242.822266"/>
      </g>
     </g>
    </g>
    <g id="ytick_5">
     <g id="line2d_13">
      <g>
       <use xlink:href="#m044dde9e71" x="62.73" y="122.400395" style="stroke: #000000; stroke-width: 0.8"/>
      </g>
     </g>
     <g id="text_13">
      <!-- −7.5 -->
      <g transform="translate(31.447187 126.199614)scale(0.1 -0.1)">
       <use xlink:href="#DejaVuSans-2212"/>
       <use xlink:href="#DejaVuSans-37" x="83.789062"/>
       <use xlink:href="#DejaVuSans-2e" x="147.412109"/>
       <use xlink:href="#DejaVuSans-35" x="179.199219"/>
      </g>
     </g>
    </g>
    <g id="ytick_6">
     <g id="line2d_14">
      <g>
       <use xlink:href="#m044dde9e71" x="62.73" y="100.825979" style="stroke: #000000; stroke-width: 0.8"/>
      </g>
     </g>
     <g id="text_14">
      <!-- −5.0 -->
      <g transform="translate(31.447187 104.625198)scale(0.1 -0.1)">
       <use xlink:href="#DejaVuSans-2212"/>
       <use xlink:href="#DejaVuSans-35" x="83.789062"/>
       <use xlink:href="#DejaVuSans-2e" x="147.412109"/>
       <use xlink:href="#DejaVuSans-30" x="179.199219"/>
      </g>
     </g>
    </g>
    <g id="ytick_7">
     <g id="line2d_15">
      <g>
       <use xlink:href="#m044dde9e71" x="62.73" y="79.251564" style="stroke: #000000; stroke-width: 0.8"/>
      </g>
     </g>
     <g id="text_15">
      <!-- −2.5 -->
      <g transform="translate(31.447187 83.050783)scale(0.1 -0.1)">
       <use xlink:href="#DejaVuSans-2212"/>
       <use xlink:href="#DejaVuSans-32" x="83.789062"/>
       <use xlink:href="#DejaVuSans-2e" x="147.412109"/>
       <use xlink:href="#DejaVuSans-35" x="179.199219"/>
      </g>
     </g>
    </g>
    <g id="ytick_8">
     <g id="line2d_16">
      <g>
       <use xlink:href="#m044dde9e71" x="62.73" y="57.677148" style="stroke: #000000; stroke-width: 0.8"/>
      </g>
     </g>
     <g id="text_16">
      <!-- 0.0 -->
      <g transform="translate(39.826875 61.476367)scale(0.1 -0.1)">
       <use xlink:href="#DejaVuSans-30"/>
       <use xlink:href="#DejaVuSans-2e" x="63.623047"/>
       <use xlink:href="#DejaVuSans-30" x="95.410156"/>
      </g>
     </g>
    </g>
    <g id="ytick_9">
     <g id="line2d_17">
      <g>
       <use xlink:href="#m044dde9e71" x="62.73" y="36.102733" style="stroke: #000000; stroke-width: 0.8"/>
      </g>
     </g>
     <g id="text_17">
      <!-- 2.5 -->
      <g transform="translate(39.826875 39.901952)scale(0.1 -0.1)">
       <use xlink:href="#DejaVuSans-32"/>
       <use xlink:href="#DejaVuSans-2e" x="63.623047"/>
       <use xlink:href="#DejaVuSans-35" x="95.410156"/>
      </g>
     </g>
    </g>
   </g>
   <g id="line2d_18">
    <path d="M 80.408455 152.604576 
L 85.459442 147.435342 
L 90.510429 142.317757 
L 95.561416 137.302955 
L 100.612403 132.441041 
L 105.66339 127.780595 
L 110.714377 123.368181 
L 115.765364 119.247888 
L 120.816351 115.460884 
L 125.867338 112.045008 
L 130.918325 109.034389 
L 135.969312 106.45911 
L 141.020299 104.3449 
L 146.071286 102.712885 
L 151.122273 101.579372 
L 156.17326 100.955685 
L 161.224247 100.848058 
L 166.275234 101.257564 
L 171.326221 102.180112 
L 176.377208 103.606485 
L 181.428195 105.522431 
L 186.479182 107.908806 
L 191.530169 110.741767 
L 196.581156 113.993007 
L 201.632143 117.630041 
L 206.68313 121.616528 
L 211.734117 125.912639 
L 216.785104 130.475446 
L 221.836091 135.25936 
L 226.887078 140.216582 
L 231.938065 145.29758 
L 236.989052 150.451588 
L 242.040039 155.627108 
L 247.091026 160.772427 
L 252.142013 165.836136 
L 257.193 170.76764 
L 262.243987 175.517664 
L 267.294974 180.038749 
L 272.345961 184.28572 
L 277.396948 188.216143 
L 282.447935 191.790748 
L 287.498922 194.973817 
L 292.549909 197.733547 
L 297.600896 200.042363 
L 302.651883 201.877197 
L 307.70287 203.219715 
L 312.753857 204.056503 
L 317.804844 204.3792 
L 322.855831 204.184582 
L 327.906818 203.474595 
L 332.957805 202.25633 
L 338.008792 200.541962 
L 343.059779 198.348619 
L 348.110766 195.698217 
L 353.161753 192.617238 
L 358.21274 189.136465 
L 363.263727 185.290677 
L 368.314714 181.118301 
L 373.365701 176.661026 
L 378.416688 171.963386 
L 383.467675 167.072319 
L 388.518662 162.036695 
L 393.569649 156.906829 
L 398.620636 151.733976 
L 403.671623 146.569822 
L 408.72261 141.465965 
L 413.773597 136.473402 
L 418.824584 131.642016 
L 423.875571 127.02008 
L 428.926558 122.653777 
L 433.977545 118.586732 
" clip-path="url(#pb8f10dc869)" style="fill: none; stroke: #024097; stroke-width: 2; stroke-linecap: square"/>
   </g>
   <g id="line2d_19">
    <path d="M 80.408455 66.306915 
L 85.459442 68.857185 
L 90.510429 71.179647 
L 95.561416 73.066843 
L 100.612403 74.350194 
L 105.66339 74.915063 
L 110.714377 74.710992 
L 115.765364 73.75621 
L 120.816351 72.136004 
L 125.867338 69.995103 
L 130.918325 67.524747 
L 135.969312 64.945606 
L 141.020299 62.488067 
L 146.071286 60.371653 
L 151.122273 58.785419 
L 156.17326 57.871058 
L 161.224247 57.710247 
L 166.275234 58.31735 
L 171.326221 59.638138 
L 176.377208 61.554627 
L 181.428195 63.895624 
L 186.479182 66.452015 
L 191.530169 68.995444 
L 196.581156 71.298715 
L 201.632143 73.156083 
L 206.68313 74.401635 
L 211.734117 74.92411 
L 216.785104 74.676837 
L 221.836091 73.681903 
L 226.887078 72.028184 
L 231.938065 69.863401 
L 236.989052 67.380927 
L 242.040039 64.802515 
L 247.091026 62.358487 
L 252.142013 60.26716 
L 257.193 58.715346 
L 262.243987 57.841664 
L 267.294974 57.724158 
L 272.345961 58.373324 
L 277.396948 59.731174 
L 282.447935 61.676416 
L 287.498922 64.035286 
L 292.549909 66.597074 
L 297.600896 69.132942 
L 302.651883 71.416371 
L 307.70287 73.243386 
L 312.753857 74.450788 
L 317.804844 74.930721 
L 322.855831 74.640315 
L 327.906818 73.605512 
L 332.957805 71.918747 
L 338.008792 69.730693 
L 343.059779 67.236803 
L 348.110766 64.65985 
L 353.161753 62.230023 
L 358.21274 60.164374 
L 363.263727 58.647419 
L 368.314714 57.814664 
L 373.365701 57.740496 
L 378.416688 58.431541 
L 383.467675 59.82607 
L 388.518662 61.799514 
L 393.569649 64.17559 
L 398.620636 66.742051 
L 403.671623 69.269642 
L 408.72261 71.532582 
L 413.773597 73.328729 
L 418.824584 74.497638 
L 423.875571 74.934894 
L 428.926558 74.601438 
L 433.977545 73.527057 
" clip-path="url(#pb8f10dc869)" style="fill: none; stroke: #024097; stroke-width: 2; stroke-linecap: square"/>
   </g>
   <g id="line2d_20">
    <path d="M 80.408455 46.458452 
L 85.459442 42.321122 
L 90.510429 39.196755 
L 95.561416 37.850304 
L 100.612403 38.611428 
L 105.66339 41.293778 
L 110.714377 45.24062 
L 115.765364 49.48563 
L 120.816351 52.989481 
L 125.867338 54.894309 
L 130.918325 54.733745 
L 135.969312 52.5471 
L 141.020299 48.869743 
L 146.071286 44.602017 
L 151.122273 40.788812 
L 156.17326 38.363732 
L 161.224247 37.920522 
L 166.275234 39.567695 
L 171.326221 42.901966 
L 176.377208 47.106989 
L 181.428195 51.153227 
L 186.479182 54.050021 
L 191.530169 55.088134 
L 196.581156 54.0134 
L 201.632143 51.088951 
L 206.68313 47.030795 
L 211.734117 42.832509 
L 216.785104 39.521981 
L 221.836091 37.909743 
L 226.887078 38.390527 
L 231.938065 40.84662 
L 236.989052 44.676686 
L 242.040039 48.942991 
L 247.091026 52.600993 
L 252.142013 54.755088 
L 257.193 54.877877 
L 262.243987 52.939297 
L 267.294974 49.41398 
L 272.345961 45.165047 
L 277.396948 41.232785 
L 282.447935 38.579948 
L 287.498922 37.856044 
L 292.549909 39.23831 
L 297.600896 42.388318 
L 302.651883 46.534837 
L 307.70287 50.662655 
L 312.753857 53.761137 
L 317.804844 55.071667 
L 322.855831 54.273382 
L 327.906818 51.56173 
L 332.957805 47.600617 
L 338.008792 43.359863 
L 343.059779 39.877751 
L 348.110766 38.006825 
L 353.161753 38.205152 
L 358.21274 40.424174 
L 363.263727 44.120599 
L 368.314714 48.389411 
L 373.365701 52.185458 
L 378.416688 54.579333 
L 383.467675 54.984934 
L 388.518662 53.302955 
L 393.569649 49.945203 
L 398.620636 45.733772 
L 403.671623 41.699769 
L 408.72261 38.830857 
L 413.773597 37.829447 
L 418.824584 38.940718 
L 423.875571 41.892592 
L 428.926558 45.962349 
L 433.977545 50.153569 
" clip-path="url(#pb8f10dc869)" style="fill: none; stroke: #024097; stroke-width: 2; stroke-linecap: square"/>
   </g>
   <g id="line2d_21">
    <path d="M 80.408455 152.518279 
L 85.459442 147.556163 
L 90.510429 142.421452 
L 95.561416 137.286742 
L 100.612403 132.281477 
L 105.66339 127.578255 
L 110.714377 123.177074 
L 115.765364 119.077935 
L 120.816351 115.367135 
L 125.867338 111.958378 
L 130.918325 108.894811 
L 135.969312 106.262732 
L 141.020299 104.105291 
L 146.071286 102.465635 
L 151.122273 101.361025 
L 156.17326 100.782831 
L 161.224247 100.696533 
L 166.275234 101.110762 
L 171.326221 101.990998 
L 176.377208 103.414909 
L 181.428195 105.313458 
L 186.479182 107.747052 
L 191.530169 110.577615 
L 196.581156 113.813777 
L 201.632143 117.438279 
L 206.68313 121.451121 
L 211.734117 125.722855 
L 216.785104 130.296631 
L 221.836091 135.086151 
L 226.887078 140.048267 
L 231.938065 145.139829 
L 236.989052 150.27454 
L 242.040039 155.452399 
L 247.091026 160.543961 
L 252.142013 165.635523 
L 257.193 170.55449 
L 262.243987 175.300862 
L 267.294974 179.874638 
L 272.345961 184.016925 
L 277.396948 187.90032 
L 282.447935 191.438524 
L 287.498922 194.717835 
L 292.549909 197.565658 
L 297.600896 199.895695 
L 302.651883 201.707946 
L 307.70287 203.002411 
L 312.753857 203.77909 
L 317.804844 204.124281 
L 322.855831 203.951685 
L 327.906818 203.261304 
L 332.957805 202.139434 
L 338.008792 200.413481 
L 343.059779 198.169742 
L 348.110766 195.494514 
L 353.161753 192.387799 
L 358.21274 188.935892 
L 363.263727 185.052497 
L 368.314714 180.91021 
L 373.365701 176.509029 
L 378.416688 171.762657 
L 383.467675 166.929988 
L 388.518662 161.838426 
L 393.569649 156.746864 
L 398.620636 151.569005 
L 403.671623 146.391145 
L 408.72261 141.342732 
L 413.773597 136.337467 
L 418.824584 131.504798 
L 423.875571 126.844724 
L 428.926558 122.443544 
L 433.977545 118.387554 
" clip-path="url(#pb8f10dc869)" style="fill: none; stroke-dasharray: 7.4,3.2; stroke-dashoffset: 0; stroke: #078f3c; stroke-width: 2"/>
   </g>
   <g id="line2d_22">
    <path d="M 80.408455 66.429946 
L 85.459442 69.273372 
L 90.510429 71.464263 
L 95.561416 73.431218 
L 100.612403 75.295214 
L 105.66339 75.147367 
L 110.714377 75.651323 
L 115.765364 74.996318 
L 120.816351 72.9784 
L 125.867338 70.911225 
L 130.918325 68.518178 
L 135.969312 65.581573 
L 141.020299 62.956755 
L 146.071286 60.645327 
L 151.122273 58.833843 
L 156.17326 57.828953 
L 161.224247 57.631129 
L 166.275234 58.295425 
L 171.326221 59.86784 
L 176.377208 61.968243 
L 181.428195 64.552263 
L 186.479182 67.202409 
L 191.530169 69.845923 
L 196.581156 71.879075 
L 201.632143 73.619197 
L 206.68313 75.470508 
L 211.734117 76.037498 
L 216.785104 74.826486 
L 221.836091 74.061991 
L 226.887078 72.464901 
L 231.938065 70.166348 
L 236.989052 67.356615 
L 242.040039 65.054668 
L 247.091026 62.447585 
L 252.142013 60.205297 
L 257.193 58.592932 
L 262.243987 58.091381 
L 267.294974 57.733448 
L 272.345961 57.928716 
L 277.396948 59.530872 
L 282.447935 61.423701 
L 287.498922 64.032395 
L 292.549909 66.519512 
L 297.600896 69.06107 
L 302.651883 71.410483 
L 307.70287 73.31324 
L 312.753857 74.291226 
L 317.804844 75.002879 
L 322.855831 74.758591 
L 327.906818 73.78672 
L 332.957805 71.893816 
L 338.008792 69.976332 
L 343.059779 67.202756 
L 348.110766 64.490264 
L 353.161753 62.481143 
L 358.21274 60.148277 
L 363.263727 58.515612 
L 368.314714 57.92253 
L 373.365701 57.731898 
L 378.416688 58.07892 
L 383.467675 59.566777 
L 388.518662 61.869952 
L 393.569649 63.939353 
L 398.620636 66.629736 
L 403.671623 69.666158 
L 408.72261 71.929004 
L 413.773597 73.965689 
L 418.824584 75.676755 
L 423.875571 76.022628 
L 428.926558 75.648278 
L 433.977545 74.337006 
" clip-path="url(#pb8f10dc869)" style="fill: none; stroke-dasharray: 7.4,3.2; stroke-dashoffset: 0; stroke: #078f3c; stroke-width: 2"/>
   </g>
   <g id="line2d_23">
    <path d="M 80.408455 47.904652 
L 85.459442 43.461484 
L 90.510429 40.136067 
L 95.561416 38.565865 
L 100.612403 38.70995 
L 105.66339 41.667152 
L 110.714377 45.976309 
L 115.765364 50.18992 
L 120.816351 54.185942 
L 125.867338 56.614994 
L 130.918325 56.190945 
L 135.969312 53.512582 
L 141.020299 49.529518 
L 146.071286 44.456201 
L 151.122273 40.172631 
L 156.17326 37.485053 
L 161.224247 37.0512 
L 166.275234 38.973193 
L 171.326221 42.711904 
L 176.377208 47.561648 
L 181.428195 51.643288 
L 186.479182 54.962517 
L 191.530169 56.558696 
L 196.581156 55.429317 
L 201.632143 52.366414 
L 206.68313 47.791257 
L 211.734117 42.949465 
L 216.785104 40.129556 
L 221.836091 38.362646 
L 226.887078 38.940779 
L 231.938065 41.364152 
L 236.989052 45.510772 
L 242.040039 49.912205 
L 247.091026 53.882164 
L 252.142013 56.414813 
L 257.193 56.535074 
L 262.243987 54.449267 
L 267.294974 50.667076 
L 272.345961 46.847796 
L 277.396948 42.207893 
L 282.447935 39.259557 
L 287.498922 38.808029 
L 292.549909 40.398786 
L 297.600896 43.694817 
L 302.651883 48.05351 
L 307.70287 52.315777 
L 312.753857 55.508598 
L 317.804844 56.656719 
L 322.855831 55.96679 
L 327.906818 53.223385 
L 332.957805 48.934771 
L 338.008792 44.992738 
L 343.059779 40.987985 
L 348.110766 39.135203 
L 353.161753 39.128851 
L 358.21274 41.051238 
L 363.263727 44.953526 
L 368.314714 50.413581 
L 373.365701 53.667489 
L 378.416688 56.52285 
L 383.467675 56.399677 
L 388.518662 54.98276 
L 393.569649 51.057654 
L 398.620636 46.375826 
L 403.671623 42.108814 
L 408.72261 39.436958 
L 413.773597 38.050428 
L 418.824584 38.907411 
L 423.875571 42.488776 
L 428.926558 46.515365 
L 433.977545 51.134656 
" clip-path="url(#pb8f10dc869)" style="fill: none; stroke-dasharray: 7.4,3.2; stroke-dashoffset: 0; stroke: #078f3c; stroke-width: 2"/>
   </g>
   <g id="patch_3">
    <path d="M 62.73 212.7456 
L 62.73 28.6848 
" style="fill: none; stroke: #000000; stroke-width: 0.8; stroke-linejoin: miter; stroke-linecap: square"/>
   </g>
   <g id="patch_4">
    <path d="M 451.656 212.7456 
L 451.656 28.6848 
" style="fill: none; stroke: #000000; stroke-width: 0.8; stroke-linejoin: miter; stroke-linecap: square"/>
   </g>
   <g id="patch_5">
    <path d="M 62.73 212.7456 
L 451.656 212.7456 
" style="fill: none; stroke: #000000; stroke-width: 0.8; stroke-linejoin: miter; stroke-linecap: square"/>
   </g>
   <g id="patch_6">
    <path d="M 62.73 28.6848 
L 451.656 28.6848 
" style="fill: none; stroke: #000000; stroke-width: 0.8; stroke-linejoin: miter; stroke-linecap: square"/>
   </g>
   <g id="legend_1">
    <g id="patch_7">
     <path d="M 69.73 207.7456 
L 203.3925 207.7456 
Q 205.3925 207.7456 205.3925 205.7456 
L 205.3925 177.38935 
Q 205.3925 175.38935 203.3925 175.38935 
L 69.73 175.38935 
Q 67.73 175.38935 67.73 177.38935 
L 67.73 205.7456 
Q 67.73 207.7456 69.73 207.7456 
z
" style="fill: #ffffff; opacity: 0.8; stroke: #cccccc; stroke-linejoin: miter"/>
    </g>
    <g id="line2d_24">
     <path d="M 71.73 183.487787 
L 81.73 183.487787 
L 91.73 183.487787 
" style="fill: none; stroke: #024097; stroke-width: 2; stroke-linecap: square"/>
    </g>
    <g id="text_18">
     <!-- Real Value -->
     <g transform="translate(99.73 186.987787)scale(0.1 -0.1)">
      <defs>
       <path id="DejaVuSans-52" d="M 2841 2188 
Q 3044 2119 3236 1894 
Q 3428 1669 3622 1275 
L 4263 0 
L 3584 0 
L 2988 1197 
Q 2756 1666 2539 1819 
Q 2322 1972 1947 1972 
L 1259 1972 
L 1259 0 
L 628 0 
L 628 4666 
L 2053 4666 
Q 2853 4666 3247 4331 
Q 3641 3997 3641 3322 
Q 3641 2881 3436 2590 
Q 3231 2300 2841 2188 
z
M 1259 4147 
L 1259 2491 
L 2053 2491 
Q 2509 2491 2742 2702 
Q 2975 2913 2975 3322 
Q 2975 3731 2742 3939 
Q 2509 4147 2053 4147 
L 1259 4147 
z
" transform="scale(0.015625)"/>
       <path id="DejaVuSans-65" d="M 3597 1894 
L 3597 1613 
L 953 1613 
Q 991 1019 1311 708 
Q 1631 397 2203 397 
Q 2534 397 2845 478 
Q 3156 559 3463 722 
L 3463 178 
Q 3153 47 2828 -22 
Q 2503 -91 2169 -91 
Q 1331 -91 842 396 
Q 353 884 353 1716 
Q 353 2575 817 3079 
Q 1281 3584 2069 3584 
Q 2775 3584 3186 3129 
Q 3597 2675 3597 1894 
z
M 3022 2063 
Q 3016 2534 2758 2815 
Q 2500 3097 2075 3097 
Q 1594 3097 1305 2825 
Q 1016 2553 972 2059 
L 3022 2063 
z
" transform="scale(0.015625)"/>
       <path id="DejaVuSans-61" d="M 2194 1759 
Q 1497 1759 1228 1600 
Q 959 1441 959 1056 
Q 959 750 1161 570 
Q 1363 391 1709 391 
Q 2188 391 2477 730 
Q 2766 1069 2766 1631 
L 2766 1759 
L 2194 1759 
z
M 3341 1997 
L 3341 0 
L 2766 0 
L 2766 531 
Q 2569 213 2275 61 
Q 1981 -91 1556 -91 
Q 1019 -91 701 211 
Q 384 513 384 1019 
Q 384 1609 779 1909 
Q 1175 2209 1959 2209 
L 2766 2209 
L 2766 2266 
Q 2766 2663 2505 2880 
Q 2244 3097 1772 3097 
Q 1472 3097 1187 3025 
Q 903 2953 641 2809 
L 641 3341 
Q 956 3463 1253 3523 
Q 1550 3584 1831 3584 
Q 2591 3584 2966 3190 
Q 3341 2797 3341 1997 
z
" transform="scale(0.015625)"/>
       <path id="DejaVuSans-6c" d="M 603 4863 
L 1178 4863 
L 1178 0 
L 603 0 
L 603 4863 
z
" transform="scale(0.015625)"/>
       <path id="DejaVuSans-20" transform="scale(0.015625)"/>
       <path id="DejaVuSans-56" d="M 1831 0 
L 50 4666 
L 709 4666 
L 2188 738 
L 3669 4666 
L 4325 4666 
L 2547 0 
L 1831 0 
z
" transform="scale(0.015625)"/>
       <path id="DejaVuSans-75" d="M 544 1381 
L 544 3500 
L 1119 3500 
L 1119 1403 
Q 1119 906 1312 657 
Q 1506 409 1894 409 
Q 2359 409 2629 706 
Q 2900 1003 2900 1516 
L 2900 3500 
L 3475 3500 
L 3475 0 
L 2900 0 
L 2900 538 
Q 2691 219 2414 64 
Q 2138 -91 1772 -91 
Q 1169 -91 856 284 
Q 544 659 544 1381 
z
M 1991 3584 
L 1991 3584 
z
" transform="scale(0.015625)"/>
      </defs>
      <use xlink:href="#DejaVuSans-52"/>
      <use xlink:href="#DejaVuSans-65" x="64.982422"/>
      <use xlink:href="#DejaVuSans-61" x="126.505859"/>
      <use xlink:href="#DejaVuSans-6c" x="187.785156"/>
      <use xlink:href="#DejaVuSans-20" x="215.568359"/>
      <use xlink:href="#DejaVuSans-56" x="247.355469"/>
      <use xlink:href="#DejaVuSans-61" x="308.013672"/>
      <use xlink:href="#DejaVuSans-6c" x="369.292969"/>
      <use xlink:href="#DejaVuSans-75" x="397.076172"/>
      <use xlink:href="#DejaVuSans-65" x="460.455078"/>
     </g>
    </g>
    <g id="line2d_25">
     <path d="M 71.73 198.165912 
L 81.73 198.165912 
L 91.73 198.165912 
" style="fill: none; stroke-dasharray: 7.4,3.2; stroke-dashoffset: 0; stroke: #078f3c; stroke-width: 2"/>
    </g>
    <g id="text_19">
     <!-- Vision Measurement -->
     <g transform="translate(99.73 201.665912)scale(0.1 -0.1)">
      <defs>
       <path id="DejaVuSans-69" d="M 603 3500 
L 1178 3500 
L 1178 0 
L 603 0 
L 603 3500 
z
M 603 4863 
L 1178 4863 
L 1178 4134 
L 603 4134 
L 603 4863 
z
" transform="scale(0.015625)"/>
       <path id="DejaVuSans-73" d="M 2834 3397 
L 2834 2853 
Q 2591 2978 2328 3040 
Q 2066 3103 1784 3103 
Q 1356 3103 1142 2972 
Q 928 2841 928 2578 
Q 928 2378 1081 2264 
Q 1234 2150 1697 2047 
L 1894 2003 
Q 2506 1872 2764 1633 
Q 3022 1394 3022 966 
Q 3022 478 2636 193 
Q 2250 -91 1575 -91 
Q 1294 -91 989 -36 
Q 684 19 347 128 
L 347 722 
Q 666 556 975 473 
Q 1284 391 1588 391 
Q 1994 391 2212 530 
Q 2431 669 2431 922 
Q 2431 1156 2273 1281 
Q 2116 1406 1581 1522 
L 1381 1569 
Q 847 1681 609 1914 
Q 372 2147 372 2553 
Q 372 3047 722 3315 
Q 1072 3584 1716 3584 
Q 2034 3584 2315 3537 
Q 2597 3491 2834 3397 
z
" transform="scale(0.015625)"/>
       <path id="DejaVuSans-6f" d="M 1959 3097 
Q 1497 3097 1228 2736 
Q 959 2375 959 1747 
Q 959 1119 1226 758 
Q 1494 397 1959 397 
Q 2419 397 2687 759 
Q 2956 1122 2956 1747 
Q 2956 2369 2687 2733 
Q 2419 3097 1959 3097 
z
M 1959 3584 
Q 2709 3584 3137 3096 
Q 3566 2609 3566 1747 
Q 3566 888 3137 398 
Q 2709 -91 1959 -91 
Q 1206 -91 779 398 
Q 353 888 353 1747 
Q 353 2609 779 3096 
Q 1206 3584 1959 3584 
z
" transform="scale(0.015625)"/>
       <path id="DejaVuSans-6e" d="M 3513 2113 
L 3513 0 
L 2938 0 
L 2938 2094 
Q 2938 2591 2744 2837 
Q 2550 3084 2163 3084 
Q 1697 3084 1428 2787 
Q 1159 2491 1159 1978 
L 1159 0 
L 581 0 
L 581 3500 
L 1159 3500 
L 1159 2956 
Q 1366 3272 1645 3428 
Q 1925 3584 2291 3584 
Q 2894 3584 3203 3211 
Q 3513 2838 3513 2113 
z
" transform="scale(0.015625)"/>
       <path id="DejaVuSans-4d" d="M 628 4666 
L 1569 4666 
L 2759 1491 
L 3956 4666 
L 4897 4666 
L 4897 0 
L 4281 0 
L 4281 4097 
L 3078 897 
L 2444 897 
L 1241 4097 
L 1241 0 
L 628 0 
L 628 4666 
z
" transform="scale(0.015625)"/>
       <path id="DejaVuSans-72" d="M 2631 2963 
Q 2534 3019 2420 3045 
Q 2306 3072 2169 3072 
Q 1681 3072 1420 2755 
Q 1159 2438 1159 1844 
L 1159 0 
L 581 0 
L 581 3500 
L 1159 3500 
L 1159 2956 
Q 1341 3275 1631 3429 
Q 1922 3584 2338 3584 
Q 2397 3584 2469 3576 
Q 2541 3569 2628 3553 
L 2631 2963 
z
" transform="scale(0.015625)"/>
       <path id="DejaVuSans-6d" d="M 3328 2828 
Q 3544 3216 3844 3400 
Q 4144 3584 4550 3584 
Q 5097 3584 5394 3201 
Q 5691 2819 5691 2113 
L 5691 0 
L 5113 0 
L 5113 2094 
Q 5113 2597 4934 2840 
Q 4756 3084 4391 3084 
Q 3944 3084 3684 2787 
Q 3425 2491 3425 1978 
L 3425 0 
L 2847 0 
L 2847 2094 
Q 2847 2600 2669 2842 
Q 2491 3084 2119 3084 
Q 1678 3084 1418 2786 
Q 1159 2488 1159 1978 
L 1159 0 
L 581 0 
L 581 3500 
L 1159 3500 
L 1159 2956 
Q 1356 3278 1631 3431 
Q 1906 3584 2284 3584 
Q 2666 3584 2933 3390 
Q 3200 3197 3328 2828 
z
" transform="scale(0.015625)"/>
       <path id="DejaVuSans-74" d="M 1172 4494 
L 1172 3500 
L 2356 3500 
L 2356 3053 
L 1172 3053 
L 1172 1153 
Q 1172 725 1289 603 
Q 1406 481 1766 481 
L 2356 481 
L 2356 0 
L 1766 0 
Q 1100 0 847 248 
Q 594 497 594 1153 
L 594 3053 
L 172 3053 
L 172 3500 
L 594 3500 
L 594 4494 
L 1172 4494 
z
" transform="scale(0.015625)"/>
      </defs>
      <use xlink:href="#DejaVuSans-56"/>
      <use xlink:href="#DejaVuSans-69" x="66.158203"/>
      <use xlink:href="#DejaVuSans-73" x="93.941406"/>
      <use xlink:href="#DejaVuSans-69" x="146.041016"/>
      <use xlink:href="#DejaVuSans-6f" x="173.824219"/>
      <use xlink:href="#DejaVuSans-6e" x="235.005859"/>
      <use xlink:href="#DejaVuSans-20" x="298.384766"/>
      <use xlink:href="#DejaVuSans-4d" x="330.171875"/>
      <use xlink:href="#DejaVuSans-65" x="416.451172"/>
      <use xlink:href="#DejaVuSans-61" x="477.974609"/>
      <use xlink:href="#DejaVuSans-73" x="539.253906"/>
      <use xlink:href="#DejaVuSans-75" x="591.353516"/>
      <use xlink:href="#DejaVuSans-72" x="654.732422"/>
      <use xlink:href="#DejaVuSans-65" x="693.595703"/>
      <use xlink:href="#DejaVuSans-6d" x="755.119141"/>
      <use xlink:href="#DejaVuSans-65" x="852.53125"/>
      <use xlink:href="#DejaVuSans-6e" x="914.054688"/>
      <use xlink:href="#DejaVuSans-74" x="977.433594"/>
     </g>
    </g>
   </g>
  </g>
 </g>
 <defs>
  <clipPath id="pb8f10dc869">
   <rect x="62.73" y="28.6848" width="388.926" height="184.0608"/>
  </clipPath>
 </defs>
</svg>
